<?xml version="1.0" encoding="utf-8"?>
<!-- Generator: Adobe Illustrator 15.0.0, SVG Export Plug-In . SVG Version: 6.00 Build 0)  -->
<!DOCTYPE svg PUBLIC "-//W3C//DTD SVG 1.1//EN" "http://www.w3.org/Graphics/SVG/1.1/DTD/svg11.dtd">
<svg version="1.1" id="Layer_1" xmlns="http://www.w3.org/2000/svg" xmlns:xlink="http://www.w3.org/1999/xlink" x="0px" y="0px"
	 width="661.835px" height="631.972px" viewBox="0 0 661.835 631.972" enable-background="new 0 0 661.835 631.972"
	 xml:space="preserve">
<g>
	<g>
		<path fill="#F2F2F2" d="M413.616,631.972l-79.614-184.527L216.84,473.729l-64.7-60.541L20.062,355.283L0,193.104l53.367-108.02
			L218.726,0l235.751,11.227L608.41,133.162l53.425,153.245l-52.071,88.9l-33.042,91.674l-104.28,24.116v85.823L413.616,631.972z
			 M340.219,435.901l76.946,179.186l45.276-42.53v-89.383l106.681-24.672l31.439-87.826l50.158-85.335l-50.863-146.155
			l-149.1-118.14L220.903,10.097L60.859,92.453l-50.57,102.393L29.31,348.422l128.483,56.309l62.182,58.11L340.219,435.901z"/>
	</g>
	<g>
		<path fill="#F2F2F2" d="M218.77,329.12"/>
	</g>
	<g>
		<path fill="#F2F2F2" d="M339.638,441.671"/>
	</g>
	<g>
		
			<rect x="39.696" y="125.917" transform="matrix(0.7071 0.7071 -0.7071 0.7071 121.6453 -31.8655)" fill="#F2F2F2" width="119.184" height="9.979"/>
	</g>
	<g>
		
			<rect x="164.935" y="65.62" transform="matrix(0.1748 0.9846 -0.9846 0.1748 260.5659 -169.6911)" fill="#F2F2F2" width="133.176" height="9.981"/>
	</g>
	<g>
		
			<rect x="209.666" y="41.919" transform="matrix(0.8876 0.4606 -0.4606 0.8876 55.383 -133.1577)" fill="#F2F2F2" width="181.77" height="9.98"/>
	</g>
	<g>
		
			<rect x="411.993" y="1.485" transform="matrix(0.7126 0.7016 -0.7016 0.7126 156.6448 -277.4717)" fill="#F2F2F2" width="9.98" height="101.936"/>
	</g>
	<g>
		
			<rect x="307.204" y="39.487" transform="matrix(0.3249 0.9457 -0.9457 0.3249 317.1294 -219.3268)" fill="#F2F2F2" width="9.979" height="145.968"/>
	</g>
	<g>
		
			<rect x="357.307" y="146.014" transform="matrix(0.7427 0.6696 -0.6696 0.7427 216.9618 -262.6423)" fill="#F2F2F2" width="185.884" height="9.981"/>
	</g>
	<g>
		
			<rect x="337.698" y="76.151" transform="matrix(0.8063 0.5915 -0.5915 0.8063 149.9403 -175.32)" fill="#F2F2F2" width="9.98" height="130.302"/>
	</g>
	<g>
		
			<rect x="140.764" y="178.451" transform="matrix(0.9919 0.1267 -0.1267 0.9919 25.0459 -26.7573)" fill="#F2F2F2" width="164.051" height="9.979"/>
	</g>
	<g>
		
			<rect x="187.306" y="100.502" transform="matrix(0.3409 0.9401 -0.9401 0.3409 272.0875 -78.875)" fill="#F2F2F2" width="9.98" height="108.215"/>
	</g>
	<g>
		
			<rect x="68.507" y="115.038" transform="matrix(0.1566 0.9877 -0.9877 0.1566 243.5336 82.4374)" fill="#F2F2F2" width="9.98" height="137.557"/>
	</g>
	<g>
		<line fill="#F2F2F2" x1="304.154" y1="193.836" x2="218.77" y2="329.12"/>
	</g>
	<g>
		
			<rect x="93.004" y="246.091" transform="matrix(0.444 0.896 -0.896 0.444 325.1017 -21.7762)" fill="#F2F2F2" width="174.189" height="9.982"/>
	</g>
	<g>
		
			<rect x="256.472" y="181.491" transform="matrix(0.8456 0.5338 -0.5338 0.8456 179.9447 -99.1993)" fill="#F2F2F2" width="9.981" height="159.975"/>
	</g>
	<g>
		
			<rect x="116.753" y="242.795" transform="matrix(0.1162 0.9932 -0.9932 0.1162 445.7813 180.0154)" fill="#F2F2F2" width="9.979" height="195.382"/>
	</g>
	<g>
		
			<rect x="181.9" y="317.952" transform="matrix(0.7813 0.6241 -0.6241 0.7813 271.1935 -35.9432)" fill="#F2F2F2" width="9.98" height="102.175"/>
	</g>
	<g>
		
			<rect x="196.306" y="380.404" transform="matrix(0.7251 0.6886 -0.6886 0.7251 341.8248 -85.5168)" fill="#F2F2F2" width="163.442" height="9.983"/>
	</g>
	<g>
		
			<rect x="303.717" y="198.548" transform="matrix(0.996 0.0898 -0.0898 0.996 19.9492 -36.1629)" fill="#F2F2F2" width="215.997" height="9.981"/>
	</g>
	<g>
		
			<rect x="556.841" y="117.299" transform="matrix(0.6713 0.7412 -0.7412 0.6713 314.1952 -359.0094)" fill="#F2F2F2" width="9.979" height="114.816"/>
	</g>
	<g>
		
			<rect x="510.276" y="244.567" transform="matrix(0.8842 0.4671 -0.4671 0.8842 184.64 -245.7552)" fill="#F2F2F2" width="155.507" height="9.979"/>
	</g>
	<g>
		
			<rect x="469.093" y="290.649" transform="matrix(0.4589 0.8885 -0.8885 0.4589 566.7057 -339.2097)" fill="#F2F2F2" width="185.478" height="9.981"/>
	</g>
	<g>
		
			<rect x="472.983" y="203.157" transform="matrix(0.8876 0.4606 -0.4606 0.8876 188.5915 -187.2487)" fill="#F2F2F2" width="9.977" height="179.292"/>
	</g>
	<g>
		
			<rect x="423.236" y="412.564" transform="matrix(0.8377 0.5462 -0.5462 0.8377 310.1917 -208.5682)" fill="#F2F2F2" width="165.471" height="9.98"/>
	</g>
	<g>
		
			<rect x="394.344" y="424.761" transform="matrix(0.2619 0.9651 -0.9651 0.2619 750.1447 -121.3503)" fill="#F2F2F2" width="120.129" height="9.98"/>
	</g>
	<g>
		
			<rect x="383.161" y="347.4" transform="matrix(0.5813 0.8137 -0.8137 0.5813 493.6927 -145.4189)" fill="#F2F2F2" width="9.982" height="119.239"/>
	</g>
	<g>
		
			<rect x="307.997" y="505.215" transform="matrix(0.6766 0.7363 -0.7363 0.6766 505.6551 -130.9357)" fill="#F2F2F2" width="187.793" height="9.98"/>
	</g>
	<g>
		<circle fill="#F2F2F2" cx="142.604" cy="171.866" r="27.514"/>
	</g>
	<g>
		<circle fill="#F2F2F2" cx="382.123" cy="88.699" r="27.514"/>
	</g>
	<g>
		<circle fill="#F2F2F2" cx="308.937" cy="195.152" r="27.514"/>
	</g>
	<g>
		<circle fill="#F2F2F2" cx="219.117" cy="328.218" r="27.514"/>
	</g>
	<g>
		<circle fill="#F2F2F2" cx="518.516" cy="211.786" r="27.514"/>
	</g>
	<g>
		<circle fill="#F2F2F2" cx="435.35" cy="371.465" r="27.514"/>
	</g>
	<g>
		<path fill="#F2F2F2" d="M311.379,317.562v-60.797h10.694v60.797H311.379z"/>
		<path fill="#F2F2F2" d="M346.561,314.794c-4.379-2.657-7.678-6.381-9.898-11.164c-2.221-4.785-3.33-10.335-3.33-16.654
			c0-7.005,1.345-12.868,4.034-17.592c2.688-4.722,6.287-8.21,10.789-10.461c4.504-2.251,9.508-3.377,15.012-3.377
			c6.253,0,11.57,1.329,15.95,3.986c4.378,2.661,7.66,6.381,9.851,11.166c2.188,4.785,3.283,10.336,3.283,16.652
			c0,7.006-1.345,12.87-4.034,17.592c-2.689,4.724-6.271,8.21-10.743,10.462c-4.472,2.252-9.462,3.378-14.965,3.378
			C356.255,318.783,350.938,317.454,346.561,314.794z M372.831,307.055c2.815-1.876,4.909-4.488,6.287-7.835
			c1.375-3.346,2.064-7.272,2.064-11.774c0-4.628-0.658-8.663-1.971-12.104c-1.314-3.438-3.317-6.112-6.005-8.022
			c-2.69-1.907-6.037-2.86-10.039-2.86c-4.129,0-7.6,0.938-10.415,2.815c-2.815,1.876-4.91,4.487-6.287,7.834
			c-1.376,3.346-2.063,7.271-2.063,11.773c0,7.068,1.532,12.666,4.597,16.796c3.063,4.127,7.567,6.191,13.509,6.191
			C366.576,309.87,370.016,308.931,372.831,307.055z"/>
		<path fill="#F2F2F2" d="M446.293,256.765v9.195h-20.076v51.602h-10.696V265.96h-20.359v-9.195H446.293z"/>
	</g>
</g>
</svg>
